<?xml version="1.0" encoding="UTF-8"?>
<!DOCTYPE svg PUBLIC "-//W3C//DTD SVG 1.1//EN" "http://www.w3.org/Graphics/SVG/1.1/DTD/svg11.dtd">
<svg xmlns="http://www.w3.org/2000/svg" version="1.1" width="512px" height="512px" style="shape-rendering:geometricPrecision; text-rendering:geometricPrecision; image-rendering:optimizeQuality; fill-rule:evenodd; clip-rule:evenodd" xmlns:xlink="http://www.w3.org/1999/xlink">
<g><path style="opacity:0.989" fill="#000000" d="M 233.5,-0.5 C 248.5,-0.5 263.5,-0.5 278.5,-0.5C 326.704,4.62246 370.37,21.4558 409.5,50C 411.211,51.1332 411.711,52.6332 411,54.5C 391.333,79.8333 371.667,105.167 352,130.5C 304.09,95.799 252.257,88.6324 196.5,109C 137.321,135.824 104.488,181.657 98,246.5C 97.0374,311.463 124.204,360.63 179.5,394C 230.168,419.933 280.835,419.933 331.5,394C 367.193,373.799 391.86,344.299 405.5,305.5C 355.504,304.5 305.504,304.167 255.5,304.5C 255.5,271.833 255.5,239.167 255.5,206.5C 340.833,206.5 426.167,206.5 511.5,206.5C 511.5,230.167 511.5,253.833 511.5,277.5C 498.959,377.766 446.959,449.266 355.5,492C 330.316,502.296 304.316,508.796 277.5,511.5C 262.833,511.5 248.167,511.5 233.5,511.5C 133.234,498.959 61.734,446.959 19,355.5C 8.70393,330.316 2.20393,304.316 -0.5,277.5C -0.5,262.833 -0.5,248.167 -0.5,233.5C 12.0408,133.234 64.0408,61.734 155.5,19C 180.684,8.70393 206.684,2.20393 233.5,-0.5 Z"/></g>
</svg>
