<?xml version="1.0" standalone="no"?>
<!DOCTYPE svg PUBLIC "-//W3C//DTD SVG 20010904//EN"
 "http://www.w3.org/TR/2001/REC-SVG-20010904/DTD/svg10.dtd">
<svg version="1.0" xmlns="http://www.w3.org/2000/svg"
 width="512.000000pt" height="512.000000pt" viewBox="0 0 512.000000 512.000000"
 preserveAspectRatio="xMidYMid meet">
<metadata>
Created by potrace 1.14, written by Peter Selinger 2001-2017
</metadata>
<g transform="translate(0.000000,512.000000) scale(0.100000,-0.100000)"
fill="#000000" stroke="none">
<path d="M495 5060 c-212 -44 -389 -199 -462 -406 l-28 -79 -2 -1635 c-2
-1567 -1 -1638 17 -1705 33 -126 70 -191 165 -290 65 -68 206 -145 295 -161
25 -4 48 -9 53 -10 4 -1 245 -2 535 -3 l528 -1 0 -210 0 -210 -255 0 -254 0
-44 -25 c-76 -45 -94 -128 -44 -207 23 -36 39 -49 68 -57 26 -8 502 -11 1503
-11 1362 1 1467 2 1497 18 54 29 77 68 78 132 0 43 -5 62 -23 85 -48 60 -44
60 -333 63 l-265 3 0 207 1 207 555 5 c609 6 578 3 710 70 142 72 277 238 306
375 1 6 7 30 13 55 7 31 11 551 11 1655 0 1561 -1 1613 -19 1680 -44 157 -116
262 -241 352 -76 54 -144 83 -238 102 -64 13 -4065 13 -4127 1z m4133 -316
c69 -30 125 -82 160 -149 l27 -50 3 -1417 2 -1418 -2260 0 -2260 0 0 1403 1
1402 24 59 c35 86 103 149 194 182 29 11 424 13 2044 13 l2007 1 58 -26z m192
-3366 c0 -112 -74 -225 -183 -277 l-62 -30 -2007 -1 c-2003 0 -2007 0 -2062
20 -113 43 -192 147 -203 267 l-5 53 2261 0 2261 0 0 -32z m-1599 -615 c3 -24
4 -390 1 -401 -3 -9 -145 -12 -663 -12 -362 0 -659 3 -660 8 -3 23 -4 389 -1
400 3 9 145 12 663 12 362 0 659 -3 660 -7z"/>
<path d="M1225 4416 c-37 -17 -60 -42 -78 -86 -24 -62 -2 -130 56 -174 26 -19
44 -21 218 -24 l189 -3 0 -643 c0 -709 -1 -701 62 -765 69 -70 18 -66 798 -69
l705 -3 55 28 c70 36 104 84 131 188 11 44 27 105 35 135 8 30 17 63 19 73 3
9 7 25 9 35 2 9 36 140 76 290 76 290 78 315 44 388 -21 44 -88 101 -133 114
-22 6 -316 10 -768 10 l-733 0 0 198 c0 235 -9 265 -82 301 -42 20 -58 21
-309 21 -197 -1 -272 -4 -294 -14z m2011 -838 c-4 -18 -9 -40 -11 -48 -7 -25
-62 -236 -108 -410 l-44 -165 -581 -3 -582 -2 0 330 0 330 666 0 667 0 -7 -32z"/>
<path d="M1771 2331 c-42 -22 -81 -85 -81 -130 0 -53 42 -116 90 -135 56 -22
302 -23 358 -1 115 46 121 210 9 264 -38 19 -61 21 -193 21 -124 -1 -155 -4
-183 -19z"/>
<path d="M2815 2333 c-34 -18 -44 -28 -67 -64 -24 -37 -17 -117 12 -157 40
-54 71 -62 239 -62 130 0 157 3 190 19 87 45 105 163 36 234 -42 43 -64 47
-239 47 -110 -1 -148 -4 -171 -17z"/>
</g>
</svg>
